# Blender v2.79 (sub 0) OBJ File: 'itemsample.blend'
# www.blender.org
mtllib itemsample.mtl
o Cube_Cube.002
v -0.426791 -0.073280 -0.000659
v -0.176791 0.176720 0.352894
v -0.176791 0.176720 -0.354212
v 0.073209 0.426720 -0.000659
v -0.073238 -0.426833 -0.000659
v 0.176762 -0.176833 0.352894
v 0.176762 -0.176833 -0.354212
v 0.426762 0.073167 -0.000659
vt 0.500000 0.250043
vt 0.250043 0.000087
vt 0.500000 0.000087
vt 0.000087 0.500000
vt 0.250043 0.749957
vt 0.000087 0.749957
vt 0.250043 0.500000
vt 0.500000 0.749957
vt 0.500000 0.500000
vt 0.749957 0.749957
vt 0.500000 0.999913
vt 0.250043 0.999914
vt 0.250043 0.250043
vt 0.749957 0.500000
vn -0.7071 0.7071 0.0000
vn 0.5000 0.5000 -0.7071
vn 0.7071 -0.7071 -0.0000
vn -0.5000 -0.5000 0.7071
vn -0.5000 -0.5000 -0.7071
vn 0.5000 0.5000 0.7071
usemtl None
s off
f 2/1/1 3/2/1 1/3/1
f 4/4/2 7/5/2 3/6/2
f 8/7/3 5/8/3 7/5/3
f 6/9/4 1/10/4 5/8/4
f 7/5/5 1/11/5 3/12/5
f 4/13/6 6/9/6 8/7/6
f 2/1/1 4/13/1 3/2/1
f 4/4/2 8/7/2 7/5/2
f 8/7/3 6/9/3 5/8/3
f 6/9/4 2/14/4 1/10/4
f 7/5/5 5/8/5 1/11/5
f 4/13/6 2/1/6 6/9/6
