# Blender v2.79 (sub 0) OBJ File: 'MapBottom.blend'
# www.blender.org
mtllib MapBottom3.mtl
o Plane
v -20.000000 -2.000000 20.000000
v 20.000000 -2.000000 20.000000
v -20.000000 -2.000000 -20.000000
v 20.000000 -2.000000 -20.000000
vn 0.0000 1.0000 0.0000
usemtl None
s off
f 2//1 3//1 1//1
f 2//1 4//1 3//1
o Cube.001
v -0.172082 -1.949558 13.436389
v -0.172082 2.050442 13.436389
v -0.172082 -1.949558 11.436389
v -0.172082 2.050442 11.436389
v 15.827918 -1.949558 13.436389
v 15.827918 2.050442 13.436389
v 15.827918 -1.949558 11.436389
v 15.827918 2.050442 11.436389
vn -1.0000 0.0000 0.0000
vn 0.0000 0.0000 -1.0000
vn 1.0000 0.0000 0.0000
vn 0.0000 0.0000 1.0000
vn 0.0000 -1.0000 0.0000
vn 0.0000 1.0000 0.0000
usemtl None
s off
f 6//2 7//2 5//2
f 8//3 11//3 7//3
f 12//4 9//4 11//4
f 10//5 5//5 9//5
f 11//6 5//6 7//6
f 8//7 10//7 12//7
f 6//2 8//2 7//2
f 8//3 12//3 11//3
f 12//4 10//4 9//4
f 10//5 6//5 5//5
f 11//6 9//6 5//6
f 8//7 6//7 10//7
o Cube.000_Cube.003
v -14.173808 -1.949558 -11.592579
v -14.173808 2.050442 -11.592579
v -14.173808 -1.949558 -13.592579
v -14.173808 2.050442 -13.592579
v 1.826192 -1.949558 -11.592579
v 1.826192 2.050442 -11.592579
v 1.826192 -1.949558 -13.592579
v 1.826192 2.050442 -13.592579
vn -1.0000 0.0000 0.0000
vn 0.0000 0.0000 -1.0000
vn 1.0000 0.0000 0.0000
vn 0.0000 0.0000 1.0000
vn 0.0000 -1.0000 0.0000
vn 0.0000 1.0000 0.0000
usemtl None
s off
f 14//8 15//8 13//8
f 16//9 19//9 15//9
f 20//10 17//10 19//10
f 18//11 13//11 17//11
f 19//12 13//12 15//12
f 16//13 18//13 20//13
f 14//8 16//8 15//8
f 16//9 20//9 19//9
f 20//10 18//10 17//10
f 18//11 14//11 13//11
f 19//12 17//12 13//12
f 16//13 14//13 18//13
o Cube.002_Cube.004
v 7.230228 -1.949558 -11.592579
v 7.230228 2.050442 -11.592579
v 7.230228 -1.949558 -13.592579
v 7.230228 2.050442 -13.592579
v 15.230228 -1.949558 -11.592579
v 15.230228 2.050442 -11.592579
v 15.230228 -1.949558 -13.592579
v 15.230228 2.050442 -13.592579
vn -1.0000 0.0000 0.0000
vn 0.0000 0.0000 -1.0000
vn 1.0000 0.0000 0.0000
vn 0.0000 0.0000 1.0000
vn 0.0000 -1.0000 0.0000
vn 0.0000 1.0000 0.0000
usemtl None
s off
f 22//14 23//14 21//14
f 24//15 27//15 23//15
f 28//16 25//16 27//16
f 26//17 21//17 25//17
f 27//18 21//18 23//18
f 24//19 26//19 28//19
f 22//14 24//14 23//14
f 24//15 28//15 27//15
f 28//16 26//16 25//16
f 26//17 22//17 21//17
f 27//18 25//18 21//18
f 24//19 22//19 26//19
o Cube.003_Cube.005
v -13.998011 -1.949558 13.503508
v -13.998011 2.050442 13.503508
v -13.998011 -1.949558 11.503508
v -13.998011 2.050442 11.503508
v -5.998011 -1.949558 13.503508
v -5.998011 2.050442 13.503508
v -5.998011 -1.949558 11.503508
v -5.998011 2.050442 11.503508
vn -1.0000 0.0000 0.0000
vn 0.0000 0.0000 -1.0000
vn 1.0000 0.0000 0.0000
vn 0.0000 0.0000 1.0000
vn 0.0000 -1.0000 0.0000
vn 0.0000 1.0000 0.0000
usemtl None
s off
f 30//20 31//20 29//20
f 32//21 35//21 31//21
f 36//22 33//22 35//22
f 34//23 29//23 33//23
f 35//24 29//24 31//24
f 32//25 34//25 36//25
f 30//20 32//20 31//20
f 32//21 36//21 35//21
f 36//22 34//22 33//22
f 34//23 30//23 29//23
f 35//24 33//24 29//24
f 32//25 30//25 34//25
o Cube.004_Cube.008
v 0.169446 -1.949558 4.849135
v 0.169446 2.050442 4.849135
v 0.169446 -1.949558 2.849135
v 0.169446 2.050442 2.849135
v 8.169446 -1.949558 4.849135
v 8.169446 2.050442 4.849135
v 8.169446 -1.949558 2.849135
v 8.169446 2.050442 2.849135
vn -1.0000 0.0000 0.0000
vn 0.0000 0.0000 -1.0000
vn 1.0000 0.0000 0.0000
vn 0.0000 0.0000 1.0000
vn 0.0000 -1.0000 0.0000
vn 0.0000 1.0000 0.0000
usemtl None
s off
f 38//26 39//26 37//26
f 40//27 43//27 39//27
f 44//28 41//28 43//28
f 42//29 37//29 41//29
f 43//30 37//30 39//30
f 40//31 42//31 44//31
f 38//26 40//26 39//26
f 40//27 44//27 43//27
f 44//28 42//28 41//28
f 42//29 38//29 37//29
f 43//30 41//30 37//30
f 40//31 38//31 42//31
o Cube.005_Cube.009
v -8.043642 -1.949558 -3.639966
v -8.043642 2.050442 -3.639966
v -8.043642 -1.949558 -5.639966
v -8.043642 2.050442 -5.639966
v -0.043642 -1.949558 -3.639966
v -0.043642 2.050442 -3.639966
v -0.043642 -1.949558 -5.639966
v -0.043642 2.050442 -5.639966
vn -1.0000 0.0000 0.0000
vn 0.0000 0.0000 -1.0000
vn 1.0000 0.0000 0.0000
vn 0.0000 0.0000 1.0000
vn 0.0000 -1.0000 0.0000
vn 0.0000 1.0000 0.0000
usemtl None
s off
f 46//32 47//32 45//32
f 48//33 51//33 47//33
f 52//34 49//34 51//34
f 50//35 45//35 49//35
f 51//36 45//36 47//36
f 48//37 50//37 52//37
f 46//32 48//32 47//32
f 48//33 52//33 51//33
f 52//34 50//34 49//34
f 50//35 46//35 45//35
f 51//36 49//36 45//36
f 48//37 46//37 50//37
o Cube.006_Cube.010
v 15.793746 -1.949558 4.774472
v 15.793746 2.050442 4.774472
v 13.793746 -1.949558 4.774472
v 13.793746 2.050442 4.774472
v 15.793746 -1.949558 -3.225528
v 15.793746 2.050442 -3.225528
v 13.793746 -1.949558 -3.225528
v 13.793746 2.050442 -3.225528
vn 0.0000 0.0000 1.0000
vn -1.0000 0.0000 0.0000
vn 0.0000 0.0000 -1.0000
vn 1.0000 0.0000 0.0000
vn 0.0000 -1.0000 0.0000
vn 0.0000 1.0000 0.0000
usemtl None
s off
f 54//38 55//38 53//38
f 56//39 59//39 55//39
f 60//40 57//40 59//40
f 58//41 53//41 57//41
f 59//42 53//42 55//42
f 56//43 58//43 60//43
f 54//38 56//38 55//38
f 56//39 60//39 59//39
f 60//40 58//40 57//40
f 58//41 54//41 53//41
f 59//42 57//42 53//42
f 56//43 54//43 58//43
o Cube.007_Cube.011
v -12.970914 -1.949558 2.846545
v -12.970914 2.050442 2.846545
v -14.970914 -1.949558 2.846545
v -14.970914 2.050442 2.846545
v -12.970914 -1.949558 -5.153455
v -12.970914 2.050442 -5.153455
v -14.970914 -1.949558 -5.153455
v -14.970914 2.050442 -5.153455
vn 0.0000 0.0000 1.0000
vn -1.0000 0.0000 0.0000
vn 0.0000 0.0000 -1.0000
vn 1.0000 0.0000 0.0000
vn 0.0000 -1.0000 0.0000
vn 0.0000 1.0000 0.0000
usemtl None
s off
f 62//44 63//44 61//44
f 64//45 67//45 63//45
f 68//46 65//46 67//46
f 66//47 61//47 65//47
f 67//48 61//48 63//48
f 64//49 66//49 68//49
f 62//44 64//44 63//44
f 64//45 68//45 67//45
f 68//46 66//46 65//46
f 66//47 62//47 61//47
f 67//48 65//48 61//48
f 64//49 62//49 66//49
o Cube.008_Cube.000
v 9.225923 -1.949558 -3.697021
v 9.225923 2.050442 -3.697021
v 7.225923 -1.949558 -3.697021
v 7.225923 2.050442 -3.697021
v 9.225923 -1.949558 -11.697021
v 9.225923 2.050442 -11.697021
v 7.225923 -1.949558 -11.697021
v 7.225923 2.050442 -11.697021
vn 0.0000 0.0000 1.0000
vn -1.0000 0.0000 0.0000
vn 0.0000 0.0000 -1.0000
vn 1.0000 0.0000 0.0000
vn 0.0000 -1.0000 0.0000
vn 0.0000 1.0000 0.0000
usemtl None
s off
f 70//50 71//50 69//50
f 72//51 75//51 71//51
f 76//52 73//52 75//52
f 74//53 69//53 73//53
f 75//54 69//54 71//54
f 72//55 74//55 76//55
f 70//50 72//50 71//50
f 72//51 76//51 75//51
f 76//52 74//52 73//52
f 74//53 70//53 69//53
f 75//54 73//54 69//54
f 72//55 70//55 74//55
o Cube.009_Cube.002
v -6.018169 -1.949558 11.689513
v -6.018169 2.050442 11.689513
v -8.018168 -1.949558 11.689513
v -8.018168 2.050442 11.689513
v -6.018169 -1.949558 3.689513
v -6.018169 2.050442 3.689513
v -8.018169 -1.949558 3.689513
v -8.018169 2.050442 3.689513
vn 0.0000 0.0000 1.0000
vn -1.0000 0.0000 0.0000
vn 0.0000 0.0000 -1.0000
vn 1.0000 0.0000 0.0000
vn 0.0000 -1.0000 0.0000
vn 0.0000 1.0000 0.0000
usemtl None
s off
f 78//56 79//56 77//56
f 80//57 83//57 79//57
f 84//58 81//58 83//58
f 82//59 77//59 81//59
f 83//60 77//60 79//60
f 80//61 82//61 84//61
f 78//56 80//56 79//56
f 80//57 84//57 83//57
f 84//58 82//58 81//58
f 82//59 78//59 77//59
f 83//60 81//60 77//60
f 80//61 78//61 82//61
